<?xml version="1.0" encoding="utf-8"?>
<!DOCTYPE svg PUBLIC "-//W3C//DTD SVG 1.1//EN" "http://www.w3.org/Graphics/SVG/1.1/DTD/svg11.dtd">
<svg version="1.1" xmlns="http://www.w3.org/2000/svg" xmlns:xlink="http://www.w3.org/1999/xlink" x="0px" y="0px" width="200px" height="80px" viewBox="0 0 200 80" xml:space="preserve">
<path fill="#FFF" d="M164,23.8c0-0.7-0.1-1.3-0.4-1.9c-0.3-0.5-0.6-1-1.1-1.4c-0.4-0.4-0.9-0.8-1.5-1s-1.3-0.3-1.9-0.3c-0.7,0-1.3,0.1-1.9,0.3c-0.6,0.2-1.2,0.6-1.6,1c-0.4,0.4-0.8,0.9-1.1,1.4c-0.2,0.6-0.3,1.2-0.3,1.9c0,0.6,0.1,1.2,0.3,1.8c0.3,0.6,0.7,1.1,1.1,1.5c0.4,0.4,1,0.7,1.6,0.9c0.6,0.3,1.2,0.4,1.9,0.4c0.6,0,1.3-0.1,1.9-0.4c0.6-0.2,1.1-0.5,1.5-0.9c0.5-0.4,0.8-0.9,1.1-1.5C163.9,25,164,24.4,164,23.8zM160.1,21.3c0.3,0.2,0.6,0.4,0.9,0.6c0.2,0.2,0.4,0.5,0.6,0.8c0.1,0.4,0.2,0.7,0.2,1.1c0,0.3-0.1,0.7-0.2,1c-0.2,0.3-0.4,0.6-0.6,0.9c-0.3,0.2-0.6,0.4-0.9,0.5c-0.3,0.2-0.7,0.2-1,0.2c-0.4,0-0.7,0-1.1-0.2c-0.3-0.1-0.6-0.3-0.8-0.5c-0.3-0.3-0.5-0.6-0.6-0.9c-0.2-0.3-0.2-0.7-0.2-1c0-0.4,0-0.7,0.2-1.1c0.1-0.3,0.3-0.6,0.6-0.8c0.2-0.2,0.5-0.4,0.8-0.6c0.4-0.1,0.7-0.2,1.1-0.2C159.4,21.1,159.8,21.2,160.1,21.3z"/>
<path fill="#FFF" d="M169.2,19h-2.3v9.8h2.3V19z"/>
<path fill="#FFF" d="M118.6,22.7v2.1h2.3v3.6h2.2V19h-2.2v3.7H118.6z"/>
<path fill="#FFF" d="M118.3,22.9c0.4-1,0.6-2.1,0.6-3.3h-7.1v1.9h4.7c0,0.4-0.2,0.9-0.4,1.4L112,23v1.8l2.9-0.1c-0.5,0.5-1,0.9-1.6,1.3c-0.5,0.4-1.2,0.8-2,1.1l0.6,1.5c1-0.3,1.9-0.8,2.8-1.3c0.8-0.5,1.5-1.2,2.2-1.9C117.5,24.7,118,23.8,118.3,22.9z"/>
<path fill="#FFF" d="M114.9,29.4v1.9h9.3v1.2h-9v4.9h11.5v-1.8h-9.2v-1.3h9v-4.9H114.9z"/>
<path fill="#FFF" d="M126.5,19h-2.2v9.4h2.2V19z"/>
<path fill="#FFF" d="M135.3,32.5v1.9h17v-1.9H145v-4h4.7v-8.9h-11.8v8.9h4.7v4H135.3zM140.2,26.6v-5.1h7.1v5.1H140.2z"/>
<path fill="#FFF" d="M169.2,30.2h-11.4v7.2h11.4V30.2zM160.2,32.1h6.7v3.4h-6.7V32.1z"/>
<path fill="#FFF" d="M63.4,25.2v-5.8h-12v1.9H61v3.9H63.4z"/>
<path fill="#FFF" d="M66,28.6v-1.9H49v1.9h7.2v2.6h-5v1.9h10.1v4.5h2.3v-6.4h-4.8v-2.6H66z"/>
<path fill="#FFF" d="M82.5,24.4c-0.5-0.4-1-0.7-1.6-1c-0.6-0.2-1.2-0.3-1.9-0.3s-1.3,0.1-1.9,0.3c-0.6,0.3-1.1,0.6-1.6,1c-0.4,0.4-0.7,0.9-1,1.5c-0.2,0.5-0.3,1.1-0.3,1.8c0,0.6,0.1,1.2,0.3,1.7c0.3,0.6,0.6,1.1,1,1.5c0.5,0.4,1,0.7,1.6,1c0.6,0.2,1.2,0.3,1.9,0.3s1.3-0.1,1.9-0.3c0.6-0.3,1.1-0.6,1.6-1c0.4-0.4,0.7-0.9,1-1.5c0.2-0.5,0.4-1.1,0.4-1.7c0-0.7-0.2-1.3-0.4-1.8C83.2,25.3,82.9,24.8,82.5,24.4zM79,25.2c0.4,0,0.7,0.1,1,0.2s0.5,0.3,0.8,0.5c0.2,0.2,0.4,0.5,0.5,0.8c0.1,0.3,0.2,0.6,0.2,1c0,0.3-0.1,0.6-0.2,0.9c-0.1,0.3-0.3,0.5-0.5,0.8c-0.3,0.2-0.5,0.4-0.8,0.5s-0.6,0.2-1,0.2c-0.3,0-0.7-0.1-0.9-0.2c-0.3-0.1-0.6-0.3-0.8-0.5c-0.3-0.3-0.4-0.5-0.6-0.8c-0.1-0.3-0.2-0.6-0.2-0.9c0-0.4,0.1-0.7,0.2-1c0.2-0.3,0.3-0.6,0.6-0.8c0.2-0.2,0.5-0.4,0.8-0.5C78.3,25.3,78.7,25.2,79,25.2z"/>
<path fill="#FFF" d="M84,20.6h-3.6V19h-2.7v1.6H74v1.8h10V20.6z"/>
<path fill="#FFF" d="M96.8,24.7c-0.5,0.6-1.1,1.1-1.7,1.5c-0.6,0.5-1.1,0.8-1.7,1l0.6,1.7c0.5-0.2,1.1-0.4,1.7-0.8c0.6-0.3,1.1-0.7,1.7-1.1c0.5-0.5,1-0.9,1.5-1.5c0.4-0.5,0.8-1,1-1.5c0.3,0.5,0.7,1,1.1,1.5c0.5,0.6,1,1,1.5,1.5c0.6,0.4,1.1,0.8,1.7,1.1c0.6,0.4,1.2,0.6,1.7,0.8l0.6-1.7c-0.6-0.2-1.1-0.5-1.7-1c-0.6-0.4-1.2-0.9-1.7-1.5c-0.5-0.6-0.9-1.2-1.3-1.9c-0.3-0.6-0.5-1.3-0.5-2v-1.4h-2.7v1.4c0,0.7-0.2,1.4-0.5,2C97.7,23.5,97.3,24.1,96.8,24.7z"/>
<path fill="#FFF" d="M88.6,24.5V19h-2.3v17.8h2.3v-10h2.5v-2.3H88.6z"/>
<path fill="#FFF" d="M91.5,32.3v1.9h16.9v-1.9H91.5z"/>
<path fill="#FFF" d="M32.9,22.4c-0.5,0.4-0.9,0.8-1.2,1.4c-0.3,0.5-0.5,1.2-0.5,1.9c0,0.6,0.2,1.1,0.4,1.7c0.2,0.5,0.5,0.9,1,1.3c0.4,0.4,0.9,0.7,1.4,0.9c0.5,0.2,1.1,0.3,1.7,0.3c0.7,0,1.2-0.1,1.8-0.3c0.5-0.2,1-0.5,1.4-0.9c0.4-0.4,0.7-0.8,1-1.3c0.2-0.6,0.3-1.1,0.3-1.7c0-0.7-0.1-1.4-0.4-1.9c-0.3-0.6-0.7-1-1.2-1.4h2v-1.8h-3.5V19h-2.7v1.6h-3.6v1.8H32.9zM33.6,24.7c0-0.2,0.3-0.5,0.5-0.7c0.2-0.2,0.4-0.4,0.7-0.5s0.6-0.2,0.9-0.2c0.4,0,0.7,0.1,0.9,0.2c0.3,0.1,0.5,0.3,0.8,0.5c0.2,0.2,0.4,0.5,0.5,0.7c0.1,0.3,0.2,0.6,0.2,1c0,0.3-0.1,0.6-0.2,0.9c-0.1,0.3-0.3,0.5-0.5,0.7c-0.3,0.2-0.5,0.4-0.8,0.5C36.4,28,36.1,28,35.7,28c-0.3,0-0.6,0-0.9-0.2c-0.3-0.1-0.5-0.3-0.7-0.5c-0.2-0.2-0.5-0.4-0.5-0.7c-0.2-0.3-0.2-0.6-0.2-0.9C33.4,25.3,33.4,25,33.6,24.7z"/>
<path fill="#FFF" d="M45.4,19H43v12.9h2.4v-7h2.4v-2.4h-2.4V19z"/>
<path fill="#FFF" d="M36.4,31.3H34v6.1h11.8v-1.9h-9.4V31.3z"/>
<path fill="#9CF" d="M134,52.1h-2.2v8.7h2.2v-5.2c0-0.4,0.1-0.7,0.2-0.9c0.1-0.3,0.3-0.4,0.6-0.5c0.2-0.2,0.4-0.2,0.6-0.2c0.3,0,0.4,0,0.7,0.1c0.1,0.1,0.2,0.2,0.5,0.4l1.6-1.6c-0.3-0.3-0.6-0.6-0.9-0.7c-0.4-0.1-0.7-0.2-1.2-0.2c-0.4,0-0.9,0.1-1.3,0.3c-0.3,0.2-0.6,0.4-0.8,0.7V52.1z"/>
<path fill="#9CF" d="M114.4,49h-2.1v9.3c0,0.4,0.1,0.8,0.2,1.2c0.2,0.4,0.5,0.7,0.9,0.9c0.3,0.3,0.8,0.4,1.4,0.4h1.2V59h-0.8c-0.3,0-0.5-0.1-0.6-0.2c-0.1-0.2-0.2-0.4-0.2-0.6V49z"/>
<path fill="#9CF" d="M124.7,49h-2.2v11.8h2.2v-2.6l0.9-1l2.1,3.6h2.7l-3.3-5.2l3.1-3.5h-2.6l-2.9,3.6V49z"/>
<path fill="#9CF" d="M120.2,60.8v-2.5h-2.5v2.5H120.2z"/>
<path fill="#9CF" d="M110.6,60.8V59h-0.8c-0.3,0-0.5-0.1-0.6-0.2c-0.1-0.2-0.2-0.4-0.2-0.6V49h-2.1v9.3c0,0.4,0,0.8,0.2,1.2c0.2,0.4,0.5,0.7,0.8,0.9c0.4,0.3,0.9,0.4,1.5,0.4H110.6z"/>
<path fill="#9CF" d="M90.8,49h-2.2v11.8h2.2v-2.6l0.9-1l2.1,3.6h2.7l-3.3-5.2l3.1-3.5h-2.6l-2.9,3.6V49z"/>
<path fill="#9CF" d="M86.8,58.1c0-0.8-0.2-1.4-0.6-1.8c-0.5-0.4-1.1-0.7-2-0.8l-1.3-0.1c-0.4,0-0.7-0.1-0.8-0.3c-0.1-0.1-0.2-0.3-0.2-0.5c0-0.2,0.1-0.4,0.3-0.5c0.2-0.2,0.6-0.3,1-0.3c0.4,0,0.7,0.1,1.1,0.1c0.3,0.1,0.6,0.3,0.9,0.5l1.3-1.3c-0.4-0.4-0.9-0.7-1.4-0.9c-0.6-0.1-1.2-0.2-1.9-0.2c-0.6,0-1.1,0.1-1.6,0.3c-0.5,0.3-0.9,0.6-1.3,1c-0.3,0.4-0.4,0.9-0.4,1.5c0,0.8,0.2,1.4,0.6,1.7c0.5,0.4,1.1,0.7,1.9,0.7l1.4,0.2c0.3,0,0.5,0.1,0.7,0.2c0.1,0.2,0.2,0.3,0.2,0.6c0,0.2-0.1,0.3-0.2,0.5c-0.2,0.1-0.4,0.2-0.6,0.3c-0.2,0-0.5,0.1-0.8,0.1c-0.3,0-0.7-0.1-1.1-0.2c-0.4-0.1-0.8-0.3-1.2-0.7l-1.4,1.5c0.4,0.3,0.8,0.6,1.2,0.8c0.4,0.1,0.8,0.3,1.2,0.3c0.4,0.1,0.9,0.1,1.3,0.1c0.7,0,1.3-0.1,1.9-0.3c0.5-0.2,1-0.5,1.3-0.9C86.6,59.2,86.8,58.7,86.8,58.1z"/>
<path fill="#9CF" d="M77.9,55.1c0-1-0.3-1.8-0.9-2.3S75.5,52,74.2,52c-0.7,0-1.3,0.1-1.8,0.3c-0.4,0.2-0.9,0.5-1.3,0.9l1.4,1.4c0.2-0.3,0.4-0.5,0.7-0.6c0.2-0.1,0.5-0.1,1-0.1s0.9,0.1,1.2,0.3c0.2,0.2,0.4,0.6,0.4,1v0.5h-2.1c-0.7,0-1.2,0.1-1.7,0.3c-0.4,0.2-0.7,0.5-1,0.9c-0.1,0.4-0.2,0.8-0.2,1.3c0,0.3,0,0.7,0.1,1c0.1,0.4,0.3,0.7,0.6,0.9c0.2,0.3,0.5,0.5,0.9,0.6c0.4,0.1,0.8,0.2,1.3,0.2s0.8-0.1,1.2-0.2c0.3-0.1,0.6-0.4,0.9-0.6v0.7h2.1V55.1zM72.8,58.1c0-0.3,0.1-0.5,0.4-0.7c0.2-0.2,0.5-0.3,0.8-0.3h1.8v0.5c0,0.3-0.1,0.5-0.1,0.7c-0.1,0.2-0.2,0.3-0.2,0.4C75.3,58.9,75,59,74.8,59c-0.2,0.1-0.4,0.1-0.8,0.1c-0.3,0-0.7-0.1-0.9-0.3C72.9,58.7,72.8,58.4,72.8,58.1z"/>
<path fill="#9CF" d="M69,55.2c0-0.6-0.1-1.2-0.3-1.6c-0.2-0.5-0.5-0.9-1-1.2c-0.4-0.2-0.9-0.4-1.6-0.4c-0.3,0-0.7,0.1-1.1,0.3c-0.3,0.1-0.7,0.3-1,0.6V49h-2.1v11.8H64v-5.3c0-0.4,0.1-0.7,0.3-0.9c0.1-0.2,0.2-0.4,0.5-0.5C65,54,65.2,54,65.5,54c0.2,0,0.4,0,0.6,0.1c0.2,0.1,0.4,0.3,0.6,0.5c0.1,0.2,0.2,0.5,0.2,0.9v5.3H69V55.2z"/>
<path fill="#9CF" d="M104.9,57.1v-0.9c0-0.8-0.1-1.5-0.4-2.2c-0.3-0.6-0.7-1.1-1.3-1.4c-0.5-0.4-1.2-0.6-2-0.6c-0.8,0-1.5,0.2-2,0.6c-0.6,0.3-1,0.8-1.3,1.5c-0.4,0.6-0.5,1.4-0.5,2.4c0,1.1,0.2,2,0.6,2.7c0.3,0.6,0.8,1.1,1.4,1.3c0.6,0.3,1.3,0.4,2,0.4c0.5,0,1-0.1,1.3-0.2c0.4-0.1,0.8-0.2,1.1-0.4c0.3-0.2,0.6-0.5,0.9-0.8l-1.3-1.2c-0.3,0.2-0.6,0.4-0.9,0.6c-0.2,0.1-0.6,0.2-1.1,0.2c-0.6,0-1.1-0.2-1.4-0.6c-0.3-0.3-0.5-0.8-0.5-1.4H104.9zM102.1,54.1c0.2,0.1,0.4,0.4,0.5,0.6s0.1,0.3,0.2,0.5c0,0.1,0,0.3,0,0.5h-3.3c0-0.2,0-0.4,0.1-0.5c0-0.2,0-0.3,0.1-0.5c0.1-0.2,0.3-0.5,0.5-0.6c0.3-0.2,0.6-0.3,1-0.3C101.5,53.8,101.8,53.9,102.1,54.1z"/>
</svg>
