<?xml version="1.0" encoding="utf-8"?>
<!DOCTYPE svg PUBLIC "-//W3C//DTD SVG 1.1//EN" "http://www.w3.org/Graphics/SVG/1.1/DTD/svg11.dtd">
<svg version="1.1" id="Layer_1" xmlns="http://www.w3.org/2000/svg" xmlns:xlink="http://www.w3.org/1999/xlink" x="0px" y="0px" width="120px" height="120px" viewBox="0 0 120 120" xml:space="preserve"><circle cx="60" cy="60" r="50" fill="#FFF" stroke="#369"/><path fill="#369" d="M67.65,46.35c-2-2.1-4.5-3.1-7.4-3.1s-5.4,1-7.4,3.1c-2.1,2-3.1,4.5-3.1,7.4s1,5.4,3.1,7.4c2,2.1,4.5,3.1,7.4,3.1s5.4-1,7.4-3.1c2.1-2,3.1-4.5,3.1-7.4S69.75,48.35,67.65,46.35z M60.25,46.25c2.1,0,3.8,0.7,5.3,2.2c1.5,1.4,2.2,3.3,2.2,5.3c0,2.1-0.7,3.8-2.2,5.3s-3.2,2.2-5.3,2.2s-3.8-0.7-5.3-2.2s-2.2-3.2-2.2-5.3c0-2,0.7-3.9,2.2-5.3C56.45,46.95,58.15,46.25,60.25,46.25z"/><path fill="#369" d="M70.75,61.25l-3,3l13.5,13.5l3-3L70.75,61.25z"/><path fill="#369" d="M87.25,40.15c0-0.8-0.3-1.5-0.9-2c-0.5-0.6-1.2-0.9-2-0.9h-48.2c-0.5,0-1,0.1-1.4,0.4c-0.2,0.1-0.4,0.3-0.6,0.5c-0.6,0.5-0.9,1.2-0.9,2v30.2c0,0.8,0.3,1.4,0.9,2c0.2,0.2,0.4,0.3,0.6,0.5c0.4,0.2,0.9,0.4,1.4,0.4h36.4l-6-6h-30.3v-27h48v27h-3.2l5.2,5.2c0.1,0,0.1-0.1,0.1-0.1c0.6-0.6,0.9-1.2,0.9-2V40.15z M61.35,69.15c0.3,0.3,0.4,0.7,0.4,1.1s-0.1,0.7-0.4,1c-0.3,0.3-0.7,0.5-1.1,0.5s-0.7-0.2-1-0.5s-0.5-0.6-0.5-1s0.2-0.8,0.5-1.1c0.3-0.3,0.6-0.4,1-0.4S61.05,68.85,61.35,69.15z"/><path fill="#369" d="M54.25,74.75v3l-3,3v1.5h18v-1.5l-3-3v-3H54.25z"/></svg>
