<?xml version="1.0" encoding="utf-8"?>
<!DOCTYPE svg PUBLIC "-//W3C//DTD SVG 1.1//EN" "http://www.w3.org/Graphics/SVG/1.1/DTD/svg11.dtd">
<svg version="1.1" xmlns="http://www.w3.org/2000/svg" xmlns:xlink="http://www.w3.org/1999/xlink" x="0px" y="0px" width="120px" height="120px" viewBox="0 0 120 120" xml:space="preserve">
<circle cx="60" cy="60" r="50" fill="#FFF" stroke="#369"/>
<path fill="#369" d="M29.15,81.45l-0.3-0.1c-0.8,0-1.5,0.1-2,0.4c-1.8,0.9-3.6,1.6-5.4,1.9c0.6-1.2,1.4-2.4,2.3-3.6
c-0.9-1-1.7-2.2-2.4-3.6c1.6,0.1,3.1,0.7,4.5,1.7c1,0.8,2.2,0.9,3.4,0.4l4.3-1.1l3.6-0.4l-1.4-0.3c-0.2-0.5,0-1,0.5-1.4
c0.1-0.7-0.1-1.4-0.4-2c1.7,0.4,3.2,1.3,4.5,2.6c2.3-0.4,4.8,0.1,7.4,1.5c0.8,0.6,2,1.1,3.4,1.3l-0.6,1.1l0.7,0.3
c-0.9,1.1-2.1,2-3.8,2.5c-0.6,0.9-3.5,1.3-8.5,1.3c-1.3,1-2.7,1.7-4.3,2c0.7-0.7,1.2-1.5,1.5-2.2l-3.4-1.1
c-1.3,0.6-2.6,1.1-3.9,1.5c0.2-0.5,0.1-1-0.1-1.4c-0.5-0.3-0.8-0.6-0.8-1.1C28.75,81.65,29.15,81.65,29.15,81.45z M49.05,79.65
c0-0.3-0.1-0.5-0.2-0.6c-0.2-0.2-0.4-0.3-0.6-0.3c-0.3,0-0.5,0.1-0.6,0.3c-0.2,0.1-0.3,0.3-0.3,0.6c0,0.2,0.1,0.4,0.3,0.6
c0.1,0.1,0.3,0.2,0.6,0.2c0.2,0,0.4-0.1,0.6-0.2C48.95,80.05,49.05,79.85,49.05,79.65z"/>
<path fill="#369" d="M47.85,79.65c0-0.1,0-0.2,0.1-0.2c0.1-0.1,0.2-0.1,0.2-0.1c0.1,0,0.2,0,0.3,0.1c0,0,0.1,0.1,0.1,0.2
s-0.1,0.2-0.1,0.3c-0.1,0-0.2,0.1-0.3,0.1c0,0-0.1-0.1-0.2-0.1C47.85,79.85,47.85,79.75,47.85,79.65z"/>
<path fill="#369" d="M51.35,93.25c-2.3,1.2-4.1,1.8-5.3,1.7c1-1.1,1.7-2.2,2-3.2c-0.2-1.3-0.9-2.3-2.2-3.2
c1.7,0,3.4,0.5,5.2,1.4c0.8,0.5,2,0.5,3.8,0l-1-0.7c0.6-0.1,1.2,0.1,2,0.6l4-0.5c-0.5-0.3-1.1-0.6-1.9-0.7
c0.2-0.3,0.5-0.6,1.1-1.1c0.3-0.7,0.1-1.4-0.7-2.1c1.7,0.6,3.2,1.7,4.4,3.1c5.1,0.2,9.4,1,12.8,2.5c0.1,0.1,0.1,0.2,0,0.3
c-0.6,0.1-1.1,0.6-1.5,1.3c0.4-0.1,0.8-0.1,1.2,0c0.3,0.2,0.6,0.2,1,0c0.2,0.2,0.2,0.4,0,0.7c-0.6,0.4-1.3,0.5-2,0.4
c-1.1,0.9-2.1,1.3-3,1c-0.6,0.3-1.3,0.4-2.1,0.5l-0.4,0.3c-0.6-0.2-1.3-0.3-2-0.2c-0.8,0.2-1.5,0.3-2,0.2l0.2-0.2
c-0.5,0-1.1,0.1-1.6,0.2c-0.5,0.9-1.2,1.7-2,2.4c0.2-0.9,0.2-1.7-0.2-2.3l0.9-0.4c-1,0-1.9-0.1-2.8-0.3l-0.7,0.5
c-0.6,0.7-1.4,1.2-2.3,1.5c0.4-0.4,0.2-1-0.7-1.8c-1-0.4-1.8-1-2.5-1.7l1-0.2C52.85,92.95,51.95,92.95,51.35,93.25z M73.85,90.55
c-0.1-0.1-0.3-0.2-0.5-0.2c-0.1,0-0.3,0.1-0.4,0.2c-0.2,0.1-0.2,0.3-0.2,0.5c0,0.2,0,0.3,0.2,0.4c0.1,0.2,0.3,0.2,0.4,0.2
c0.2,0,0.4,0,0.5-0.2c0.1-0.1,0.2-0.2,0.2-0.4C74.05,90.85,73.95,90.65,73.85,90.55z"/>
<path fill="#369" d="M73.45,90.75c0.1,0,0.1,0.1,0.2,0.1c0,0.1,0.1,0.1,0.1,0.2c0,0.1-0.1,0.1-0.1,0.2c-0.1,0-0.1,0.1-0.2,0.1
c-0.1,0-0.2-0.1-0.2-0.1c-0.1-0.1-0.1-0.1-0.1-0.2c0-0.1,0-0.1,0.1-0.2C73.25,90.85,73.35,90.75,73.45,90.75z"/>
<path fill="#369" d="M28.75,56.65h-0.2c-0.6-0.1-1,0-1.4,0.2c-1.2,0.6-2.4,1-3.6,1.2c0.5-0.7,1-1.5,1.6-2.3
c-0.6-0.7-1.1-1.5-1.6-2.4c1,0.1,2,0.4,3,1.1c0.7,0.5,1.4,0.6,2.3,0.3l2.8-0.8l2.4-0.2l-0.9-0.2c-0.1-0.3,0-0.7,0.2-1
c0.2-0.4,0-0.8-0.2-1.3c1.2,0.3,2.2,0.9,3,1.7c1.6-0.2,3.2,0.1,5,1c0.5,0.4,1.3,0.8,2.2,0.9l-0.3,0.7l0.4,0.2
c-0.6,0.7-1.4,1.3-2.5,1.7c-0.4,0.6-2.3,0.9-5.7,0.9c-0.9,0.6-1.8,1.1-2.9,1.3c0.5-0.5,0.9-1,1-1.5l-2.2-0.7
c-0.9,0.4-1.7,0.8-2.6,1c0.1-0.4,0.1-0.7-0.1-1c-0.3-0.1-0.5-0.3-0.5-0.6C28.45,56.75,28.75,56.75,28.75,56.65z M41.95,55.45
c0-0.2,0-0.3-0.1-0.4c-0.1-0.1-0.3-0.2-0.4-0.2c-0.2,0-0.3,0.1-0.4,0.2c-0.1,0.1-0.2,0.2-0.2,0.4c0,0.1,0.1,0.3,0.2,0.4
c0.1,0.1,0.2,0.1,0.4,0.1c0.1,0,0.3,0,0.4-0.1C41.95,55.75,41.95,55.55,41.95,55.45z"/>
<path fill="#369" d="M41.15,55.45c0-0.1,0.1-0.1,0.1-0.2c0.1,0,0.1,0,0.2,0h0.1c0.1,0.1,0.1,0.1,0.1,0.2c0,0.1,0,0.1-0.1,0.2
c0,0.1-0.1,0.1-0.1,0.1c-0.1,0-0.1,0-0.2-0.1C41.25,55.55,41.15,55.55,41.15,55.45z"/>
<path fill="#369" d="M32.85,67.75c-2.3,1.2-4.1,1.7-5.3,1.6c1-1.1,1.7-2.1,2-3.2c-0.2-1.2-0.9-2.3-2.2-3.2
c1.7,0.1,3.4,0.5,5.2,1.5c0.8,0.5,2,0.5,3.8,0l-1-0.8c0.5-0.1,1.2,0.1,2,0.6l4-0.5c-0.5-0.3-1.1-0.5-1.9-0.6
c0.2-0.3,0.5-0.7,1.1-1.2c0.3-0.7,0.1-1.3-0.7-2c1.7,0.5,3.2,1.6,4.4,3.1c5.1,0.1,9.4,1,12.8,2.4c0.1,0.1,0.1,0.2,0,0.4
c-0.6,0.1-1.1,0.5-1.5,1.3c0.4-0.1,0.8-0.1,1.2,0c0.3,0.1,0.6,0.1,1,0c0.2,0.1,0.2,0.3,0,0.6c-0.6,0.4-1.3,0.6-2,0.4
c-1.1,1-2.1,1.3-2.9,1.1c-0.7,0.2-1.4,0.4-2.2,0.5l-0.4,0.3c-0.6-0.2-1.3-0.3-2-0.2c-0.8,0.2-1.4,0.3-2,0.2l0.2-0.2
c-0.5-0.1-1.1,0-1.6,0.2c-0.5,0.9-1.2,1.7-2,2.4c0.2-1,0.2-1.7-0.2-2.3l0.9-0.4c-1,0-1.9-0.1-2.8-0.3l-0.7,0.4
c-0.6,0.7-1.4,1.2-2.3,1.6c0.4-0.5,0.1-1.1-0.7-1.9c-1-0.4-1.8-0.9-2.5-1.7l1-0.1C34.35,67.35,33.35,67.35,32.85,67.75z
 M55.35,65.05c-0.1-0.2-0.3-0.2-0.5-0.2c-0.1,0-0.3,0-0.4,0.2c-0.2,0.1-0.2,0.2-0.2,0.4c0,0.2,0,0.4,0.2,0.5
c0.1,0.1,0.3,0.2,0.4,0.2c0.2,0,0.4-0.1,0.5-0.2c0.1-0.1,0.2-0.3,0.2-0.5C55.55,65.25,55.45,65.15,55.35,65.05z"/>
<path fill="#369" d="M54.95,65.25c0.1,0,0.1,0,0.2,0.1c0,0,0.1,0.1,0.1,0.2l-0.1,0.1c-0.1,0.1-0.1,0.1-0.2,0.1
c-0.1,0-0.1,0-0.2-0.1c-0.1,0-0.1-0.1-0.1-0.1c0-0.1,0-0.2,0.1-0.2C54.85,65.25,54.85,65.25,54.95,65.25z"/>
<path fill="#369" d="M80.05,56.65h-0.2c-0.6-0.1-1,0-1.4,0.2c-1.2,0.6-2.4,1-3.6,1.2c0.4-0.7,0.9-1.5,1.6-2.3
c-0.7-0.7-1.2-1.5-1.7-2.4c1.1,0.1,2.1,0.4,3.1,1.1c0.7,0.5,1.4,0.6,2.3,0.3l2.8-0.8l2.4-0.2l-0.9-0.2c-0.1-0.3,0-0.7,0.3-1
c0.1-0.4,0-0.8-0.3-1.3c1.2,0.3,2.2,0.9,3,1.7c1.6-0.2,3.2,0.1,5,1c0.5,0.4,1.3,0.8,2.2,0.9l-0.3,0.7l0.4,0.2
c-0.6,0.7-1.4,1.3-2.5,1.7c-0.4,0.6-2.3,0.9-5.7,0.9c-0.8,0.6-1.8,1.1-2.8,1.3c0.5-0.5,0.8-1,0.9-1.5l-2.2-0.7
c-0.9,0.4-1.7,0.8-2.6,1c0.1-0.4,0.1-0.7-0.1-1c-0.3-0.1-0.5-0.3-0.5-0.6C79.75,56.75,80.05,56.75,80.05,56.65z M93.25,55.45
c0-0.2,0-0.3-0.1-0.4c-0.1-0.1-0.3-0.2-0.4-0.2c-0.2,0-0.3,0.1-0.4,0.2c-0.1,0.1-0.2,0.2-0.2,0.4c0,0.1,0.1,0.3,0.2,0.4
c0.1,0.1,0.2,0.1,0.4,0.1c0.1,0,0.3,0,0.4-0.1C93.25,55.75,93.25,55.55,93.25,55.45z"/>
<path fill="#369" d="M92.45,55.45c0-0.1,0.1-0.1,0.1-0.2c0.1,0,0.1,0,0.2,0h0.1c0.1,0.1,0.1,0.1,0.1,0.2c0,0.1,0,0.1-0.1,0.2
c0,0.1-0.1,0.1-0.1,0.1c-0.1,0-0.1,0-0.2-0.1C92.55,55.55,92.45,55.55,92.45,55.45z"/>
<path fill="#369" d="M71.55,66.65l-0.3-0.1c-0.5,0-1,0.1-1.3,0.2c-1.2,0.7-2.4,1.1-3.7,1.3c0.5-0.8,1-1.6,1.6-2.4
c-0.6-0.7-1.1-1.5-1.6-2.4c1,0.1,2,0.5,3,1.1c0.7,0.6,1.5,0.7,2.3,0.3l2.8-0.7l2.5-0.3l-1-0.2c-0.1-0.3,0-0.6,0.3-0.9
c0.1-0.5,0-0.9-0.2-1.4c1.1,0.3,2.1,0.9,3,1.8c1.5-0.3,3.2,0.1,4.9,1c0.6,0.4,1.3,0.7,2.3,0.9l-0.4,0.7l0.5,0.2
c-0.6,0.7-1.5,1.2-2.6,1.6c-0.4,0.6-2.3,0.9-5.7,0.9c-0.8,0.7-1.7,1.1-2.8,1.4c0.5-0.5,0.8-1,1-1.5l-2.2-0.8
c-0.9,0.5-1.8,0.8-2.7,1.1c0.1-0.4,0.1-0.7-0.1-1c-0.3-0.2-0.5-0.4-0.5-0.7C71.15,66.75,71.45,66.75,71.55,66.65z M84.75,65.35
c0-0.1-0.1-0.3-0.2-0.4c-0.1-0.1-0.2-0.1-0.4-0.1c-0.1,0-0.2,0-0.4,0.1c-0.1,0.1-0.1,0.3-0.1,0.4c0,0.2,0,0.3,0.1,0.4
c0.2,0.1,0.3,0.2,0.4,0.2c0.2,0,0.3-0.1,0.4-0.2C84.65,65.65,84.75,65.55,84.75,65.35z"/>
<path fill="#369" d="M83.95,65.45c0-0.1,0-0.2,0.1-0.2l0.1-0.1c0.1,0,0.1,0.1,0.2,0.1c0,0,0,0.1,0,0.2v0.1
c-0.1,0.1-0.1,0.1-0.2,0.1c0,0-0.1,0-0.1-0.1C83.95,65.55,83.95,65.45,83.95,65.45z"/>
<path fill="#369" d="M74.15,77.75c-2.4,1.2-4.1,1.7-5.4,1.6c1.1-1.1,1.8-2.1,2-3.2c-0.1-1.2-0.8-2.3-2.1-3.2
c1.6,0.1,3.4,0.5,5.1,1.5c0.9,0.5,2.1,0.5,3.9,0l-1-0.8c0.6-0.1,1.2,0.1,2,0.6l4-0.5c-0.5-0.3-1.1-0.5-1.9-0.6
c0.2-0.3,0.5-0.7,1.1-1.2c0.3-0.7,0.1-1.3-0.7-2c1.7,0.5,3.2,1.6,4.4,3.1c5.1,0.1,9.4,1,12.8,2.4c0.1,0.1,0.1,0.2,0,0.4
c-0.6,0.1-1.1,0.5-1.5,1.3c0.4-0.1,0.8-0.1,1.2,0c0.3,0.1,0.6,0.1,1,0c0.2,0.1,0.2,0.3,0,0.6c-0.6,0.4-1.3,0.6-2,0.4
c-1.1,1-2.1,1.3-2.9,1.1c-0.7,0.2-1.4,0.4-2.2,0.5l-0.4,0.3c-0.6-0.2-1.3-0.3-2-0.2c-0.8,0.2-1.4,0.3-2,0.2l0.2-0.2
c-0.5-0.1-1.1,0-1.6,0.2c-0.5,0.9-1.2,1.7-2,2.4c0.2-1,0.2-1.7-0.2-2.3l0.9-0.4c-1,0-1.9-0.1-2.8-0.3l-0.7,0.4
c-0.6,0.7-1.4,1.2-2.3,1.6c0.4-0.5,0.2-1.1-0.7-1.9c-1-0.4-1.8-0.9-2.5-1.7l1-0.1C75.65,77.35,74.75,77.35,74.15,77.75z
 M96.65,75.05c-0.1-0.2-0.3-0.2-0.5-0.2c-0.1,0-0.3,0-0.4,0.2c-0.2,0.1-0.2,0.2-0.2,0.4c0,0.2,0,0.4,0.2,0.5
c0.1,0.1,0.3,0.2,0.4,0.2c0.2,0,0.4-0.1,0.5-0.2c0.1-0.1,0.2-0.3,0.2-0.5C96.85,75.25,96.75,75.15,96.65,75.05z"/>
<path fill="#369" d="M96.25,75.25c0.1,0,0.1,0,0.2,0.1c0,0,0.1,0.1,0.1,0.2l-0.1,0.1c-0.1,0.1-0.1,0.1-0.2,0.1s-0.1,0-0.2-0.1
c-0.1,0-0.1-0.1-0.1-0.1c0-0.1,0-0.2,0.1-0.2C96.15,75.25,96.15,75.25,96.25,75.25z"/>
<path fill="#369" d="M51.05,46.45l-0.4-0.1c-1.1-0.1-2,0.1-2.7,0.5c-2.4,1.2-4.8,2-7.3,2.5c0.9-1.6,2-3.1,3.2-4.7
c-1.2-1.4-2.3-3-3.2-4.8c2.1,0.1,4.1,0.8,5.9,2.1c1.5,1.1,3,1.3,4.6,0.6l5.7-1.5l4.9-0.6l-2-0.3c-0.2-0.7,0-1.3,0.7-1.8
c0.1-1,0-1.9-0.5-2.8c2.3,0.6,4.3,1.8,6,3.6c3.1-0.6,6.3,0.1,9.8,1.9c1.2,0.9,2.7,1.4,4.6,1.8l-0.8,1.4l1,0.5
c-1.2,1.3-2.9,2.5-5.1,3.3c-0.9,1.2-4.7,1.7-11.4,1.7c-1.7,1.3-3.6,2.2-5.7,2.7c1-1,1.7-2,2-3l-4.5-1.5c-1.7,0.9-3.5,1.6-5.2,2.1
c0.2-0.7,0.1-1.3-0.2-1.9c-0.6-0.4-1-0.8-1-1.4C50.45,46.75,50.95,46.65,51.05,46.45z M77.55,43.95c0-0.2-0.1-0.5-0.3-0.8
c-0.2-0.2-0.5-0.3-0.8-0.3c-0.3,0-0.6,0.1-0.8,0.3c-0.2,0.3-0.3,0.6-0.3,0.8c0,0.3,0.1,0.6,0.3,0.8c0.2,0.2,0.5,0.3,0.8,0.3
c0.3,0,0.6-0.1,0.8-0.3S77.55,44.25,77.55,43.95z"/>
<path fill="#369" d="M75.95,44.05c0-0.1,0.1-0.2,0.1-0.3c0.1-0.1,0.2-0.2,0.4-0.2c0.1,0,0.2,0.1,0.3,0.2s0.1,0.2,0.1,0.3
c0,0.2,0,0.2-0.1,0.3c-0.1,0.1-0.2,0.1-0.3,0.1c-0.2,0-0.3,0-0.4-0.1C76.05,44.25,75.95,44.25,75.95,44.05z"/>
<path fill="#369" d="M51.35,29.25c-2.3,1.2-4.1,1.8-5.3,1.7c1-1.1,1.7-2.2,2-3.2c-0.2-1.3-0.9-2.3-2.2-3.2
c1.7,0,3.4,0.5,5.2,1.4c0.8,0.5,2,0.5,3.8,0l-1-0.7c0.6-0.1,1.2,0.1,2,0.6l4-0.5c-0.5-0.3-1.1-0.6-1.9-0.7
c0.2-0.3,0.5-0.6,1.1-1.1c0.3-0.7,0.1-1.4-0.7-2.1c1.7,0.6,3.2,1.6,4.4,3.1c5.1,0.2,9.4,1,12.8,2.5c0.1,0.1,0.1,0.2,0,0.3
c-0.6,0.1-1.1,0.6-1.5,1.3c0.4-0.1,0.8-0.1,1.2,0c0.3,0.2,0.6,0.2,1,0c0.2,0.2,0.2,0.4,0,0.7c-0.6,0.4-1.3,0.5-2,0.4
c-1.1,0.9-2.1,1.3-3,1c-0.6,0.3-1.3,0.4-2.1,0.5l-0.4,0.3c-0.6-0.2-1.3-0.3-2-0.2c-0.8,0.2-1.5,0.3-2,0.2l0.2-0.2
c-0.5,0-1.1,0.1-1.6,0.2c-0.5,0.9-1.2,1.7-2,2.4c0.2-0.9,0.2-1.7-0.2-2.3l0.9-0.4c-1,0-1.9-0.1-2.8-0.3l-0.7,0.5
c-0.6,0.7-1.4,1.2-2.3,1.5c0.4-0.4,0.2-1-0.7-1.8c-1-0.4-1.8-1-2.5-1.7l1-0.2C52.85,28.95,51.95,28.95,51.35,29.25z M73.85,26.55
c-0.1-0.1-0.3-0.2-0.5-0.2c-0.1,0-0.3,0.1-0.4,0.2c-0.2,0.1-0.2,0.3-0.2,0.5c0,0.2,0,0.3,0.2,0.4c0.1,0.2,0.3,0.2,0.4,0.2
c0.2,0,0.4,0,0.5-0.2c0.1-0.1,0.2-0.2,0.2-0.4C74.05,26.85,73.95,26.65,73.85,26.55z"/>
<path fill="#369" d="M73.45,26.75c0.1,0,0.1,0.1,0.2,0.1c0,0.1,0.1,0.1,0.1,0.2c0,0.1-0.1,0.1-0.1,0.2c-0.1,0-0.1,0.1-0.2,0.1
c-0.1,0-0.2-0.1-0.2-0.1c-0.1-0.1-0.1-0.1-0.1-0.2c0-0.1,0-0.1,0.1-0.2C73.25,26.85,73.35,26.75,73.45,26.75z"/>
</svg>
