<?xml version="1.0" encoding="utf-8"?>
<!DOCTYPE svg PUBLIC "-//W3C//DTD SVG 1.1//EN" "http://www.w3.org/Graphics/SVG/1.1/DTD/svg11.dtd">
<svg version="1.1" xmlns="http://www.w3.org/2000/svg" xmlns:xlink="http://www.w3.org/1999/xlink" x="0px" y="0px" width="120px" height="120px" viewBox="0 0 120 120" xml:space="preserve">
<circle cx="60" cy="60" r="50" fill="#FFF" stroke="#369"/>
<path fill="#369" d="M45.1,37.2l-0.3-0.6c-0.7-0.1-1.2,0-1.6,0.2l0.4,0.5C44.2,37.3,44.7,37.3,45.1,37.2z"/>
<path fill="#369" d="M41.5,37.9c0.6,0,1.1-0.2,1.5-0.5l-0.4-0.5c-0.6,0-1.1,0.1-1.4,0.5L41.5,37.9z"/>
<path fill="#369" d="M38.3,38.1v-0.4l-1.4,2.1h0.4L38.3,38.1z"/>
<path fill="#369" d="M83.3,66.7l1.1,1.7l9.6-2.9c-0.5-0.5-1-1-1.6-1.4L83.3,66.7z"/>
<path fill="#369" d="M83.8,68.7l-1.1-1.8l-8.9,2l0.5,2.3l0.2,0.3L83.8,68.7z"/>
<path fill="#369" d="M42.9,75.2l1,1.9l11.3-1.5l-1-2.3L42.9,75.2z"/>
<path fill="#369" d="M32.1,76.9c0.2,0.5,0.4,1.1,0.7,1.5l10.4-1.3l-1-1.8L32.1,76.9z"/>
<polyline fill="none" stroke="#369" points="83.8,68.7 82.7,66.9 73.8,68.9 "/>
<polyline fill="none" stroke="#369" points="84.4,68.4 83.3,66.7 92.4,64.1 "/>
<line fill="none" stroke="#369" x1="85.3" y1="71" x2="85.9" y2="70.8"/>
<line fill="none" stroke="#369" x1="85.3" y1="71" x2="83.8" y2="68.7"/>
<line fill="none" stroke="#369" x1="85.9" y1="70.8" x2="84.4" y2="68.4"/>
<path fill="none" stroke="#369" d="M74.2,60.4c-0.2-0.2-0.3-0.3-0.4-0.4"/>
<polyline fill="none" stroke="#369" points="73.6,66.2 74,65.2 76.8,64.6 "/>
<path fill="none" stroke="#369" d="M73.2,66c0.1,0.1,0.3,0.1,0.4,0.2"/>
<line fill="none" stroke="#369" x1="73.2" y1="66" x2="73.3" y2="66.7"/>
<polyline fill="none" stroke="#369" points="73.3,66.7 73.8,67.1 76.8,65.6 "/>
<path fill="none" stroke="#369" d="M68.4,72.9v-0.7c0.2-1.3,1-2,2.3-2.3l1.2,0.3"/>
<line fill="none" stroke="#369" x1="73.8" y1="68.9" x2="73.3" y2="66.7"/>
<path fill="none" stroke="#369" d="M76.8,64.6c-0.3-1.6-1.1-3-2.6-4.2"/>
<path fill="none" stroke="#369" d="M71.8,63.7c0.1,1.3,0.6,2,1.4,2.3"/>
<line fill="none" stroke="#369" x1="76.8" y1="65.6" x2="73.6" y2="66.2"/>
<line fill="none" stroke="#369" x1="76.8" y1="65.6" x2="76.8" y2="64.6"/>
<polyline fill="none" stroke="#369" points="73.8,68.9 74.3,71.2 74.5,71.5 83.8,68.7 "/>
<polyline fill="none" stroke="#369" points="55.3,75.8 55.9,75.8 57.8,78.8 61.3,80.7 76,77.6 75.9,77.2 "/>
<polyline fill="none" stroke="#369" points="75.9,77.2 75.4,75 85.3,71 "/>
<path fill="none" stroke="#369" d="M92.4,64.1c-0.9-0.6-2-1.2-3.2-1.5l-15-2.2"/>
<path fill="none" stroke="#369" d="M94,65.5c-0.5-0.5-1-1-1.6-1.4"/>
<path fill="none" stroke="#369" d="M85.9,70.8l9.2-3.8c-0.3-0.5-0.7-1-1.1-1.5"/>
<line fill="none" stroke="#369" x1="84.4" y1="68.4" x2="94" y2="65.5"/>
<path fill="none" stroke="#369" d="M65.6,60.4l1.6,1c1.2-1.6,2.6-2.4,4.2-2.4c0.8,0,1.6,0.4,2.4,1"/>
<path fill="none" stroke="#369" d="M68.7,50.1l0.2-0.7c0-0.6-0.1-1.1-0.4-1.7l-1.5-2c-0.6-0.2-1.1,0-1.5,0.7L62,52.3"/>
<polyline fill="none" stroke="#369" points="63,60.7 61.8,59.7 61.8,59.2 60.2,57.3 60.5,54.7 62,52.3 "/>
<polyline fill="none" stroke="#369" points="68.7,50.1 66.9,48.6 63.9,56.9 64.6,58.8 66.9,60.3 "/>
<path fill="none" stroke="#369" d="M67.8,56.1l-0.5,2.8c-0.1,0.5-0.2,1-0.4,1.4"/>
<line fill="none" stroke="#369" x1="67.8" y1="56.1" x2="68.7" y2="50.1"/>
<path fill="none" stroke="#369" d="M62,52.3l-1.6-2L53.1,42c-0.8-1-1.8-1.9-2.9-2.6l-4.9-3.2C43.2,35,41,35.3,38.7,37c-2.5,0.1-3.8,1.2-4.2,3.5
c0.1,2.5,0.5,4.8,1.3,7.1l0.4,1.2"/>
<path fill="none" stroke="#369" d="M44.8,36.6c-0.7-0.1-1.2,0-1.6,0.2l0.4,0.5c0.6,0,1.1,0,1.5-0.1L44.8,36.6"/>
<path fill="none" stroke="#369" d="M41.5,37.9l-0.3-0.5c0.3-0.4,0.8-0.5,1.4-0.5l0.4,0.5C42.6,37.7,42.1,37.9,41.5,37.9"/>
<polyline fill="none" stroke="#369" points="38.3,38.1 37.3,39.8 36.9,39.8 38.3,37.7 38.3,38.1 "/>
<polyline fill="none" stroke="#369" points="57.7,74.9 55.7,73 49.7,63.5 47.7,60.6 36.2,48.8 "/>
<path fill="none" stroke="#369" d="M36.2,48.8l5.3,13.8c0.4,1.1,0.3,2.3-0.4,3.6L33,73.6c-0.6,0.4-1,1-1.3,1.7c0.1,0.6,0.2,1.1,0.4,1.6"/>
<path fill="none" stroke="#369" d="M32.8,78.4c0.3,0.7,0.7,1.2,1.2,1.7l10.6-0.3"/>
<path fill="none" stroke="#369" d="M32.1,76.9c0.2,0.5,0.4,1.1,0.7,1.5"/>
<line fill="none" stroke="#369" x1="43.9" y1="77.1" x2="45.3" y2="79.7"/>
<line fill="none" stroke="#369" x1="44.6" y1="79.8" x2="45.3" y2="79.7"/>
<line fill="none" stroke="#369" x1="44.6" y1="79.8" x2="43.2" y2="77.1"/>
<polyline fill="none" stroke="#369" points="55.2,75.6 54.2,73.3 42.9,75.2 43.9,77.1 "/>
<polyline fill="none" stroke="#369" points="43.2,77.1 42.2,75.3 32.1,76.9 "/>
<line fill="none" stroke="#369" x1="32.8" y1="78.4" x2="43.2" y2="77.1"/>
<path fill="none" stroke="#369" d="M63,60.7L62.4,61l1.1,1.2c-1.3-0.5-2.7-0.7-4.1-0.6c-1.7,0.9-2.9,2.1-3.5,3.6"/>
<line fill="none" stroke="#369" x1="65.6" y1="60.4" x2="63" y2="60.7"/>
<path fill="none" stroke="#369" d="M64.6,68c-0.6-0.7-0.9-1.5-0.9-2.2c0.2-1.4,0.8-2.3,2.1-2.7"/>
<line fill="none" stroke="#369" x1="66.9" y1="60.3" x2="65.6" y2="60.4"/>
<polyline fill="none" stroke="#369" points="55.9,65.2 57.1,64.9 58.3,66 56.9,66.3 "/>
<path fill="none" stroke="#369" d="M57.3,69.6c0.1,0.1,0.3,0.2,0.4,0.4v4.9"/>
<polyline fill="none" stroke="#369" points="56.9,66.3 56.7,68.3 57.1,68.8 59.9,68.2 60.5,69 57.3,69.6 "/>
<path fill="none" stroke="#369" d="M55.9,65.2c-0.3,0.8-0.3,1.8,0,2.9c0.5,0.5,0.9,1,1.4,1.5"/>
<line fill="none" stroke="#369" x1="56.9" y1="66.3" x2="55.9" y2="65.2"/>
<polyline fill="none" stroke="#369" points="45.3,79.7 56.7,79.4 55.3,75.8 "/>
<line fill="none" stroke="#369" x1="55.3" y1="75.8" x2="55.2" y2="75.6"/>
<line fill="none" stroke="#369" x1="57.7" y1="77.3" x2="57.7" y2="74.9"/>
<path fill="none" stroke="#369" d="M63.1,71.1c-1.2,0.4-1.9,1.3-2,2.9l0.7,2"/>
<line fill="none" stroke="#369" x1="62.1" y1="76.6" x2="57.7" y2="77.3"/>
<polyline fill="none" stroke="#369" points="75.9,77.2 61.5,80.3 57.7,77.3 "/>
<line fill="none" stroke="#369" x1="38" y1="43" x2="53.1" y2="61.2"/>
<line fill="none" stroke="#369" x1="55.2" y1="75.6" x2="43.9" y2="77.1"/>
<path fill="none" stroke="#369" d="M73.8,60c-2-1.6-3.9-2.9-6-3.9"/>
<path fill="none" stroke="#369" d="M69.8,64c-0.6-0.6-1.4-0.9-2.3-0.9c-0.8,0-1.5,0.3-2.2,0.9c-0.6,0.6-0.9,1.3-0.9,2.2c0,0.9,0.3,1.6,0.9,2.2c0.7,0.6,1.4,1,2.2,1
c0.9,0,1.7-0.4,2.3-1c0.6-0.6,0.9-1.3,0.9-2.2C70.7,65.3,70.4,64.6,69.8,64"/>
<path fill="none" stroke="#369" d="M67.4,72.4c-0.6-0.6-1.4-0.9-2.2-0.9c-0.9,0-1.6,0.3-2.3,0.9C62.3,73,62,73.7,62,74.6s0.3,1.6,0.9,2.2c0.7,0.6,1.4,1,2.3,1
c0.8,0,1.6-0.4,2.2-1c0.6-0.6,0.9-1.3,0.9-2.2S68,73,67.4,72.4"/>
<path fill="none" stroke="#369" d="M74.2,71.6c-0.7-0.6-1.4-0.9-2.2-0.9c-1,0-1.6,0.3-2.3,0.9c-0.6,0.6-0.9,1.3-0.9,2.2c0,0.9,0.3,1.6,0.9,2.2c0.7,0.6,1.3,1,2.3,1
c0.8,0,1.5-0.4,2.2-1c0.6-0.6,0.9-1.3,0.9-2.2C75.1,72.9,74.8,72.2,74.2,71.6"/>
<path fill="none" stroke="#369" d="M60.3,64.3c-0.4,0-0.8,0.1-1.1,0.4c-0.3,0.3-0.5,0.7-0.5,1.2c0,0.4,0.2,0.8,0.5,1.1s0.7,0.4,1.1,0.4c0.5,0,0.8-0.1,1.2-0.4
c0.3-0.3,0.4-0.7,0.4-1.1c0-0.5-0.1-0.9-0.4-1.2C61.1,64.4,60.8,64.3,60.3,64.3"/>
<path fill="none" stroke="#369" d="M72.3,63.1c0,0.5,0.2,0.8,0.4,1.1c0.2,0.3,0.5,0.5,0.8,0.5c0.4,0,0.7-0.2,1-0.5c0.2-0.3,0.3-0.6,0.3-1.1c0-0.4-0.1-0.7-0.3-1
c-0.3-0.3-0.6-0.5-1-0.5c-0.3,0-0.6,0.2-0.8,0.5C72.5,62.4,72.3,62.7,72.3,63.1"/>
<path fill="none" stroke="#369" d="M71.5,72.7L71.5,72.7c0.8-0.4,1.5-0.3,2.2,0.4c1,1.3,2.1,2.8,3.2,4.4"/>
<path fill="none" stroke="#369" d="M76.9,77.5c1.5,2.3,3.1,4.9,4.6,7.6c-5-4.3-8.6-7.8-10.8-10.5c0-0.8,0.3-1.4,0.8-1.9"/>
<path fill="none" stroke="#369" d="M71.5,72.7c-2.2-2.1-4-4-5.4-5.7c0.1-0.7,0.4-1.3,0.9-1.8c0.8-0.4,1.5-0.3,2.1,0.3c2.7,3.4,5.3,7.4,7.9,12.1l-0.1-0.1"/>
<path fill="none" stroke="#369" d="M76.9,77.5c-2-1.7-3.9-3.3-5.4-4.8"/>
<path fill="none" stroke="#369" d="M64.7,74c0.7-0.4,1.4-0.3,2.1,0.4c2.7,3.3,5.2,7.3,7.9,12c-5-4.3-8.7-7.8-10.9-10.5C63.9,75.1,64.2,74.5,64.7,74"/>
</svg>
