<?xml version="1.0" encoding="utf-8"?>
<!DOCTYPE svg PUBLIC "-//W3C//DTD SVG 1.1//EN" "http://www.w3.org/Graphics/SVG/1.1/DTD/svg11.dtd">
<svg version="1.1" xmlns="http://www.w3.org/2000/svg" xmlns:xlink="http://www.w3.org/1999/xlink" x="0px" y="0px" width="120px" height="120px" viewBox="0 0 120 120" xml:space="preserve">
<circle cx="60" cy="60" r="50" fill="#FFF" stroke="#369"/>
<path fill="#369" d="M84.1,49.6l2.4-0.5l0.2,0.2l2.3-1.6l-4-4l-4.1,2.8l0,0L84.1,49.6z"/>
<path fill="#369" d="M81.7,50.1l2.4-0.5l-3.2-3.1C81.3,47.5,81.6,48.7,81.7,50.1z"/>
<path fill="#369" d="M79.6,38.6l-2.7,3.1c0.8,0.5,1.6,1.1,2.3,1.8c0,0.1,0,0.1,0,0.2l3.5-1.9L79.6,38.6z"/>
<path fill="#369" d="M74,40.5l0.9-0.7l-2.5-2.5L71,40C72,40.1,73,40.2,74,40.5z"/>
<path fill="#369" d="M68.5,52.7c0.2,0,0.4,0,0.5,0.1c-0.1-1.4-0.8-2.5-2-3.3c-0.7-0.5-1.6-0.8-2.5-0.8c-1.1-0.1-2.3,0-3.7,0.5
c-0.7,0.3-1.4,0.5-2.1,0.9c-1.1,0.5-2.2,1.2-3.3,2.1l4,4c1.1-0.9,2.2-1.6,3.3-2.1c0.7-0.4,1.3-0.6,2.1-0.9
C66.2,52.7,67.4,52.6,68.5,52.7z"/>
<path fill="#369" d="M77.7,64.2c-1.1,1.7-2.3,3.3-3.7,4.9l4,4c1.4-1.6,2.6-3.2,3.7-4.9L77.7,64.2L77.7,64.2z"/>
<path fill="#369" d="M81.5,54.4c-0.1,0.4-0.2,0.8-0.3,1.2c-0.2,1.2-0.6,2.4-1,3.6l4.4,1.1l0.4,0.4c0.2-0.8,0.4-1.6,0.5-2.3
l0.2-0.1L81.5,54.4z"/>
<path fill="#369" d="M81.5,54.4l4.2,3.9l4.8-1.4l-4-4L81.5,54.4z"/>
<path fill="#369" d="M86.5,68.8l-4-4l-4.8-0.6l4,4L86.5,68.8z"/>
<path fill="#369" d="M64.7,38.8L64.3,41c0.7-0.2,1.4-0.4,2.1-0.5L64.7,38.8z"/>
<path fill="#369" d="M57.7,44c0.3-0.1,0.5-0.2,0.7-0.4l-1.2-1.2L57.7,44z"/>
<path fill="#369" d="M44.2,57.8c0.1-0.2,0.2-0.4,0.4-0.6L43,56.6L44.2,57.8z"/>
<path fill="#369" d="M41,65.8c0.2-0.6,0.4-1.3,0.6-2l-2.3,0.3L41,65.8z"/>
<path fill="#369" d="M52.7,54.9c-0.8,1.1-1.6,2.1-2.1,3.2c-0.4,0.7-0.7,1.4-0.9,2.2c-0.5,1.3-0.6,2.6-0.5,3.7
c0.1,0.9,0.3,1.8,0.8,2.5c0.8,1.2,1.9,1.8,3.3,2.1c-0.1-0.2-0.1-0.4-0.1-0.6c-0.1-1.1,0-2.4,0.5-3.7c0.2-0.8,0.5-1.5,0.9-2.2
c0.5-1.1,1.3-2.2,2.1-3.2L52.7,54.9z"/>
<path fill="#369" d="M64.8,77.1l4,4c1.6-1,3.2-2.2,4.8-3.6l-3.9-4h-0.1C68,74.9,66.4,76.1,64.8,77.1z"/>
<path fill="#369" d="M56.1,80.7c-0.4,0.1-0.8,0.2-1.2,0.2l4,4c0.8,0,1.5-0.2,2.3-0.4l-0.4-0.4l0,0l-1.1-4.5
C58.5,80.1,57.3,80.5,56.1,80.7z"/>
<path fill="#369" d="M54.9,80.9L53.4,86l4,4l1.5-5.1L54.9,80.9z"/>
<path fill="#369" d="M49.8,86.1L49.7,86l0.5-2.5L47,80.4l-2.7,4l4,4L49.8,86.1z"/>
<path fill="#369" d="M50.2,83.5l0.4-2.4c-1.3-0.1-2.5-0.3-3.6-0.7L50.2,83.5z"/>
<path fill="#369" d="M44.1,78.6c-0.7-0.6-1.3-1.4-1.8-2.3l-3.1,2.8l3.1,3.1l1.9-3.5L44.1,78.6z"/>
<path fill="#369" d="M37.8,71.9l2.5,2.5l0.8-0.9c-0.3-1-0.5-2-0.5-3.1L37.8,71.9z"/>
<path fill="#369" d="M81,76.5l-3-3.4l-4-4l3,3.4L81,76.5z"/>
<path fill="#369" d="M73,76.5L73,76.5l-3.3-3l3.9,4h0.1l3.4,3l0,0L73,76.5z"/>
<path fill="#369" d="M65.4,82l4,4l-0.6-4.9l-4-4L65.4,82z"/>
<polyline fill="none" stroke="#369" points="
83.4,41.4 83.3,41.4 82.7,41.8 "/>
<line fill="none" stroke="#369" x1="86.5" y1="49.1" x2="84.1" y2="49.6"/>
<path fill="none" stroke="#369" d="
M84.1,49.6l-2.4,0.5c-0.1-1.4-0.4-2.6-0.8-3.6"/>
<line fill="none" stroke="#369" x1="86.7" y1="49.3" x2="89" y2="47.7"/>
<line fill="none" stroke="#369" x1="86.5" y1="49.1" x2="86.7" y2="49.3"/>
<polyline fill="none" stroke="#369" points="
89,47.7 87.4,45.5 83.4,41.4 "/>
<line fill="none" stroke="#369" x1="89" y1="47.7" x2="85" y2="43.7"/>
<line fill="none" stroke="#369" x1="85" y1="43.7" x2="83.4" y2="41.4"/>
<path fill="none" stroke="#369" d="
M82.7,41.8l-3.5,1.9c0-0.1,0-0.1,0-0.2c-0.7-0.7-1.5-1.3-2.3-1.8l2.7-3.1"/>
<polyline fill="none" stroke="#369" points="
79.6,38.6 77.1,37.7 74.9,39.8 "/>
<path fill="none" stroke="#369" d="
M74.9,39.8L74,40.5c-1-0.3-2-0.4-3-0.5l1.4-2.7"/>
<path fill="none" stroke="#369" d="
M72.4,37.3l-2.9,0.2l-1.8,2.7c-0.4,0.1-0.9,0.2-1.3,0.3"/>
<path fill="none" stroke="#369" d="
M50.2,52.3c-2.6,2.9-4.5,6-5.6,9.2c-0.9,2.4-1.3,4.6-1.2,6.5v0.1c0,1.3,0.3,2.4,0.8,3.5c0,0.2,0.1,0.3,0.2,0.5
c0.9,1.9,2.2,3.1,3.9,3.9c1.5,0.6,3.4,0.8,5.5,0.7c5.3-0.5,10.4-3.2,15.3-8.1s7.6-10,8.1-15.3c0.2-2.2-0.1-4-0.7-5.6
c-0.8-1.7-2-3-3.8-3.9c-0.2,0-0.4-0.1-0.5-0.2c-1.2-0.5-2.3-0.7-3.6-0.8h-0.1c-2,0-4.1,0.4-6.4,1.2c-3.3,1.2-6.4,3.1-9.2,5.7"/>
<polyline fill="none" stroke="#369" points="
80.9,46.5 80.9,46.5 85,43.7 "/>
<line fill="none" stroke="#369" x1="74.9" y1="39.8" x2="72.4" y2="37.3"/>
<path fill="none" stroke="#369" d="
M69,52.8c0.2,0.7,0.2,1.7,0,2.6c-0.5,2.9-2,5.7-4.7,8.4c-2.7,2.7-5.5,4.2-8.4,4.7c-1,0.2-1.9,0.2-2.6,0.1"/>
<path fill="none" stroke="#369" d="
M59.4,56.2c1.1-0.9,2.2-1.6,3.3-2.1c0.7-0.4,1.3-0.6,2.1-0.9c1.4-0.5,2.6-0.6,3.7-0.5c0.2,0,0.4,0,0.5,0.1"/>
<path fill="none" stroke="#369" d="
M74,69.1c1.4-1.6,2.6-3.2,3.7-4.9l0,0"/>
<polyline fill="none" stroke="#369" points="
90.5,56.9 90.5,53.1 86.7,49.3 "/>
<path fill="none" stroke="#369" d="
M84.6,60.3l-4.4-1.1c0.4-1.2,0.8-2.4,1-3.6c0.1-0.4,0.2-0.8,0.3-1.2"/>
<line fill="none" stroke="#369" x1="81.5" y1="54.4" x2="86.5" y2="52.9"/>
<line fill="none" stroke="#369" x1="85" y1="60.7" x2="84.6" y2="60.3"/>
<path fill="none" stroke="#369" d="
M85,60.7c0.2-0.8,0.4-1.6,0.5-2.3l0.2-0.1"/>
<line fill="none" stroke="#369" x1="85.7" y1="58.3" x2="81.5" y2="54.4"/>
<line fill="none" stroke="#369" x1="82.5" y1="64.8" x2="86.5" y2="68.8"/>
<line fill="none" stroke="#369" x1="86.5" y1="68.8" x2="88.6" y2="64.3"/>
<line fill="none" stroke="#369" x1="81.7" y1="68.2" x2="86.5" y2="68.8"/>
<line fill="none" stroke="#369" x1="88.6" y1="64.3" x2="85" y2="60.7"/>
<line fill="none" stroke="#369" x1="82.5" y1="64.8" x2="84.6" y2="60.3"/>
<line fill="none" stroke="#369" x1="85.7" y1="58.3" x2="90.5" y2="56.9"/>
<line fill="none" stroke="#369" x1="86.5" y1="52.9" x2="90.5" y2="56.9"/>
<path fill="none" stroke="#369" d="
M69,52.8c-0.1-1.4-0.8-2.5-2-3.3c-0.7-0.5-1.6-0.8-2.5-0.8c-1.1-0.1-2.3,0-3.7,0.5c-0.7,0.3-1.4,0.5-2.1,0.9
c-1.1,0.5-2.2,1.2-3.3,2.1"/>
<line fill="none" stroke="#369" x1="84.1" y1="49.6" x2="80.9" y2="46.5"/>
<line fill="none" stroke="#369" x1="81.7" y1="68.2" x2="77.7" y2="64.2"/>
<line fill="none" stroke="#369" x1="77.7" y1="64.2" x2="82.5" y2="64.8"/>
<line fill="none" stroke="#369" x1="86.5" y1="52.9" x2="86.5" y2="49.1"/>
<line fill="none" stroke="#369" x1="82.7" y1="41.8" x2="79.6" y2="38.6"/>
<path fill="none" stroke="#369" d="
M64.7,38.8l-2.8,1.1L61,42.3c-0.9,0.4-1.8,0.8-2.6,1.3"/>
<path fill="none" stroke="#369" d="
M66.4,40.5c-0.7,0.1-1.4,0.3-2.1,0.5l0.4-2.2"/>
<path fill="none" stroke="#369" d="
M57.2,42.4l-2.6,1.8l0.1,1.9c-1,0.7-2,1.5-2.9,2.4l1.1,1.2l2.5,2.5l4,4"/>
<path fill="none" stroke="#369" d="
M58.4,43.6c-0.2,0.2-0.4,0.3-0.7,0.4l-0.5-1.6"/>
<line fill="none" stroke="#369" x1="58.4" y1="43.6" x2="57.2" y2="42.4"/>
<polyline fill="none" stroke="#369" points="
36.5,40 32.5,36 36.5,36 "/>
<polyline fill="none" stroke="#369" points="
36.5,36 36.5,32 40.5,36 "/>
<line fill="none" stroke="#369" x1="40.5" y1="40" x2="36.5" y2="40"/>
<line fill="none" stroke="#369" x1="40.5" y1="40" x2="40.5" y2="36"/>
<line fill="none" stroke="#369" x1="40.5" y1="40" x2="36.5" y2="36"/>
<polyline fill="none" stroke="#369" points="
44.5,44 40.5,44 36.5,40 "/>
<polyline fill="none" stroke="#369" points="
40.5,36 44.5,40 44.5,44 "/>
<line fill="none" stroke="#369" x1="44.5" y1="44" x2="40.5" y2="40"/>
<path fill="none" stroke="#369" d="
M43,56.6l1.6,0.6c-0.2,0.2-0.3,0.4-0.4,0.6"/>
<path fill="none" stroke="#369" d="
M56.7,58.9l-4-4l-2.5-2.6l-1.1-1.1c-0.9,1-1.7,2-2.5,2.9h-1.9L43,56.6"/>
<path fill="none" stroke="#369" d="
M44.2,57.8c-0.5,0.9-0.9,1.8-1.3,2.7l-2.4,0.8l-1.2,2.8"/>
<line fill="none" stroke="#369" x1="43" y1="56.6" x2="44.2" y2="57.8"/>
<path fill="none" stroke="#369" d="
M39.3,64.1l2.3-0.3c-0.2,0.7-0.4,1.4-0.6,2"/>
<path fill="none" stroke="#369" d="
M41,65.8c-0.1,0.5-0.2,0.9-0.2,1.4L38.1,69l-0.3,2.9"/>
<line fill="none" stroke="#369" x1="39.3" y1="64.1" x2="41" y2="65.8"/>
<polyline fill="none" stroke="#369" points="
60.5,60 60.5,58 62.6,62 58.5,60 60.5,60 "/>
<path fill="none" stroke="#369" d="
M52.7,54.9c-0.8,1.1-1.6,2.1-2.1,3.2c-0.4,0.7-0.7,1.4-0.9,2.2c-0.5,1.3-0.6,2.6-0.5,3.7c0.1,0.9,0.3,1.8,0.8,2.5
c0.8,1.2,1.9,1.8,3.3,2.1"/>
<path fill="none" stroke="#369" d="
M53.3,68.6c-0.1-0.2-0.1-0.4-0.1-0.6c-0.1-1.1,0-2.4,0.5-3.7c0.2-0.8,0.5-1.5,0.9-2.2c0.5-1.1,1.3-2.2,2.1-3.2"/>
<line fill="none" stroke="#369" x1="44.5" y1="44" x2="60.5" y2="60"/>
<path fill="none" stroke="#369" d="
M64.8,77.1c1.6-1,3.2-2.2,4.8-3.6h0.1"/>
<path fill="none" stroke="#369" d="
M54.9,80.9c0.4,0,0.8-0.1,1.2-0.2c1.2-0.2,2.4-0.6,3.6-1.1l1.1,4.5l0,0"/>
<line fill="none" stroke="#369" x1="53.4" y1="86" x2="54.9" y2="80.9"/>
<line fill="none" stroke="#369" x1="49.7" y1="86" x2="49.8" y2="86.1"/>
<line fill="none" stroke="#369" x1="50.2" y1="83.5" x2="49.7" y2="86"/>
<line fill="none" stroke="#369" x1="49.7" y1="86" x2="53.4" y2="86"/>
<polyline fill="none" stroke="#369" points="
49.8,86.1 53.7,90 57.4,90 "/>
<line fill="none" stroke="#369" x1="60.8" y1="84.1" x2="61.2" y2="84.5"/>
<line fill="none" stroke="#369" x1="64.8" y1="88.1" x2="64.9" y2="88.1"/>
<line fill="none" stroke="#369" x1="64.8" y1="88.1" x2="64.9" y2="88.1"/>
<line fill="none" stroke="#369" x1="61.2" y1="84.5" x2="64.8" y2="88.1"/>
<path fill="none" stroke="#369" d="
M58.9,84.9c0.8,0,1.5-0.2,2.3-0.4"/>
<line fill="none" stroke="#369" x1="57.4" y1="90" x2="58.9" y2="84.9"/>
<line fill="none" stroke="#369" x1="57.4" y1="90" x2="53.4" y2="86"/>
<path fill="none" stroke="#369" d="
M47,80.4c1.1,0.4,2.3,0.6,3.6,0.7l-0.4,2.4"/>
<line fill="none" stroke="#369" x1="54.9" y1="80.9" x2="58.9" y2="84.9"/>
<path fill="none" stroke="#369" d="
M39.2,79.1l3.1-2.8c0.5,0.9,1.1,1.7,1.8,2.3l0.1,0.1l-1.9,3.5"/>
<line fill="none" stroke="#369" x1="44.3" y1="84.4" x2="47" y2="80.4"/>
<polyline fill="none" stroke="#369" points="
40.3,74.4 38.3,76.6 39.2,79.1 "/>
<line fill="none" stroke="#369" x1="37.8" y1="71.9" x2="40.3" y2="74.4"/>
<line fill="none" stroke="#369" x1="48.3" y1="88.4" x2="44.3" y2="84.4"/>
<polyline fill="none" stroke="#369" points="
42,82.9 46,86.9 48.3,88.4 "/>
<line fill="none" stroke="#369" x1="42" y1="82.9" x2="44.3" y2="84.4"/>
<line fill="none" stroke="#369" x1="42.3" y1="82.2" x2="42" y2="82.9"/>
<line fill="none" stroke="#369" x1="39.2" y1="79.1" x2="42.3" y2="82.2"/>
<path fill="none" stroke="#369" d="
M37.8,71.9l2.8-1.5c0,1.1,0.2,2.1,0.5,3.1l-0.8,0.9"/>
<line fill="none" stroke="#369" x1="48.3" y1="88.4" x2="49.8" y2="86.1"/>
<line fill="none" stroke="#369" x1="47" y1="80.4" x2="50.2" y2="83.5"/>
<line fill="none" stroke="#369" x1="81" y1="76.5" x2="78" y2="73.1"/>
<line fill="none" stroke="#369" x1="73" y1="76.5" x2="77" y2="72.5"/>
<polyline fill="none" stroke="#369" points="
69.7,73.5 73,76.5 73,76.5 "/>
<line fill="none" stroke="#369" x1="77" y1="72.5" x2="74" y2="69.1"/>
<polyline fill="none" stroke="#369" points="
73.6,77.5 73.7,77.5 77.1,80.5 77.1,80.5 "/>
<line fill="none" stroke="#369" x1="77.1" y1="80.5" x2="81" y2="76.5"/>
<line fill="none" stroke="#369" x1="73" y1="76.5" x2="77.1" y2="80.5"/>
<line fill="none" stroke="#369" x1="81" y1="76.5" x2="77" y2="72.5"/>
<line fill="none" stroke="#369" x1="65.4" y1="82" x2="69.4" y2="86"/>
<line fill="none" stroke="#369" x1="69.4" y1="86" x2="68.8" y2="81.1"/>
<path fill="none" stroke="#369" d="
M68.8,81.1c1.6-1,3.2-2.2,4.8-3.6"/>
<line fill="none" stroke="#369" x1="69.7" y1="73.5" x2="73.6" y2="77.5"/>
<line fill="none" stroke="#369" x1="78" y1="73.1" x2="74" y2="69.1"/>
<line fill="none" stroke="#369" x1="68.8" y1="81.1" x2="64.8" y2="77.1"/>
<line fill="none" stroke="#369" x1="65.4" y1="82" x2="64.8" y2="77.1"/>
<line fill="none" stroke="#369" x1="64.9" y1="88.1" x2="69.4" y2="86"/>
<line fill="none" stroke="#369" x1="60.8" y1="84.1" x2="65.4" y2="82"/>
<line fill="none" stroke="#369" x1="66.4" y1="40.5" x2="64.7" y2="38.8"/>
<path fill="none" stroke="#369" d="M78,73.1c1.4-1.6,2.6-3.2,3.7-4.9"/>
</svg>
